<?xml version="1.0" encoding="UTF-8" standalone="no"?>
<!-- Created with Inkscape (http://www.inkscape.org/) -->
<svg
   xmlns:dc="http://purl.org/dc/elements/1.1/"
   xmlns:cc="http://web.resource.org/cc/"
   xmlns:rdf="http://www.w3.org/1999/02/22-rdf-syntax-ns#"
   xmlns:svg="http://www.w3.org/2000/svg"
   xmlns="http://www.w3.org/2000/svg"
   xmlns:sodipodi="http://inkscape.sourceforge.net/DTD/sodipodi-0.dtd"
   xmlns:inkscape="http://www.inkscape.org/namespaces/inkscape"
   version="1.0"
   x="0.00000000"
   y="0.00000000"
   width="218.00000"
   height="218.00000"
   id="svg1315"
   sodipodi:version="0.32"
   inkscape:version="0.42.2"
   sodipodi:docname="Imbox licence 06.svg"
   sodipodi:docbase="O:\Wikipedia\Ambox">
  <metadata
     id="metadata9">
    <rdf:RDF>
      <cc:Work
         rdf:about="">
        <dc:format>image/svg+xml</dc:format>
        <dc:type
           rdf:resource="http://purl.org/dc/dcmitype/StillImage" />
      </cc:Work>
    </rdf:RDF>
  </metadata>
  <sodipodi:namedview
     inkscape:window-height="511"
     inkscape:window-width="711"
     inkscape:pageshadow="2"
     inkscape:pageopacity="0.0"
     borderopacity="1.0"
     bordercolor="#666666"
     pagecolor="#ffffff"
     id="base"
     inkscape:zoom="1.5779817"
     inkscape:cx="109.00000"
     inkscape:cy="109.00000"
     inkscape:window-x="22"
     inkscape:window-y="22"
     inkscape:current-layer="svg1315" />
  <defs
     id="defs1328" />
  <g
     transform="matrix(1.056122,0.000000,0.000000,1.056122,5.500044,5.500044)"
     id="g2808">
    <path
       d="M 98.000000,43.000000 C 67.640000,43.000000 43.000000,67.640000 43.000000,98.000000 C 43.000000,108.30101 45.909589,117.91125 50.843750,126.15625 C 57.906250,119.09375 64.968750,112.03125 72.031250,104.96875 C 71.430275,102.73153 71.000000,100.42610 71.000000,98.000000 C 71.000000,83.096000 83.096000,71.000000 98.000000,71.000000 C 100.44914,71.000000 102.80492,71.326401 105.06250,71.937500 C 112.08333,64.916666 119.10417,57.895833 126.12500,50.875000 C 117.88139,45.938758 108.30412,43.000000 98.000000,43.000000 z M 146.15625,71.843750 C 141.77083,76.229167 137.38542,80.614583 133.00000,85.000000 L 151.43750,85.000000 C 150.30172,80.317554 148.40460,75.972734 146.15625,71.843750 z M 122.18750,110.00000 C 117.76472,118.88160 108.58968,125.00000 98.000000,125.00000 C 96.447500,125.00000 94.949814,124.78325 93.468750,124.53125 C 86.218750,131.78125 78.968750,139.03125 71.718750,146.28125 C 79.529526,150.54196 88.481764,153.00000 98.000000,153.00000 C 124.24246,153.00000 146.21121,134.60053 151.68750,110.00000 L 122.18750,110.00000 z "
       style="fill:#808080;fill-opacity:1.0000000"
       id="path1319" />
    <path
       d="M 148.00000,32.000000 L 32.000000,148.00000 L 50.000000,165.00000 L 165.00000,50.000000 L 148.00000,32.000000 z "
       style="fill:#808080"
       id="path1323" />
    <path
       d="M 98.000000,0.00000000 C 43.904000,0.00000000 0.00000000,43.904000 0.00000000,98.000000 C 0.00000000,152.09600 43.904000,196.00000 98.000000,196.00000 C 152.09600,196.00000 196.00000,152.09600 196.00000,98.000000 C 196.00000,43.904000 152.09600,0.00000000 98.000000,0.00000000 z M 98.000000,20.000000 C 141.05600,20.000000 176.00000,54.944000 176.00000,98.000000 C 176.00000,141.05600 141.05600,176.00000 98.000000,176.00000 C 54.944000,176.00000 20.000000,141.05600 20.000000,98.000000 C 20.000000,54.944000 54.944000,20.000000 98.000000,20.000000 z "
       style="fill:#808080"
       id="path1325" />
  </g>
</svg>
